<svg width="20" height="20" viewBox="0 0 20 20" fill="none" xmlns="http://www.w3.org/2000/svg">
<g clip-path="url(#clip0_394_8)">
<path d="M10.4932 0.495598C10.5557 0.532677 10.5557 0.532677 10.625 0.58593C10.6804 0.627203 10.6804 0.627203 10.737 0.66931C10.8685 0.779605 10.9405 0.908727 11.0118 1.06292C11.0249 1.09025 11.0381 1.11759 11.0516 1.14575C11.1997 1.45788 11.3339 1.77606 11.4673 2.09472C11.4954 2.16146 11.5236 2.2282 11.5517 2.29492C11.5972 2.40259 11.6426 2.51026 11.6879 2.61796C11.8687 3.04709 12.0515 3.47536 12.2341 3.90368C12.3299 4.12836 12.4257 4.35307 12.5214 4.57778C12.5488 4.64221 12.5488 4.64221 12.5768 4.70793C12.8122 5.26076 13.0469 5.8139 13.2813 6.36718C13.5679 6.39469 13.8546 6.42211 14.1413 6.4495C14.2483 6.45972 14.3553 6.46997 14.4623 6.48025C15.15 6.54628 15.8379 6.61053 16.526 6.67223C16.7552 6.69282 16.9844 6.71363 17.2136 6.73443C17.4393 6.75489 17.6651 6.77496 17.8908 6.79478C18.0332 6.80737 18.1755 6.82032 18.3179 6.83336C18.3843 6.83936 18.4507 6.84523 18.5172 6.85093C19.4204 6.92863 19.4204 6.92863 19.7656 7.26562C20.0184 7.59677 20.0285 7.91776 20 8.32031C19.9408 8.53922 19.8149 8.67715 19.6484 8.82812C19.6077 8.87037 19.567 8.9127 19.5264 8.95507C19.415 9.06669 19.2977 9.16636 19.1748 9.26513C19.0072 9.3999 18.8482 9.54053 18.6914 9.68749C18.5063 9.86088 18.3156 10.0231 18.1177 10.1819C17.9695 10.3054 17.8296 10.4369 17.6888 10.5688C17.5589 10.6898 17.4263 10.8045 17.2876 10.9155C17.1167 11.0526 16.9562 11.1976 16.7969 11.3477C16.6052 11.5281 16.4087 11.6977 16.203 11.8623C16.0518 11.988 15.9084 12.1213 15.7652 12.2559C15.7353 12.284 15.7353 12.284 15.7048 12.3126C15.6854 12.3312 15.6661 12.3497 15.6461 12.3688C15.5859 12.4219 15.5859 12.4219 15.5174 12.467C15.4403 12.5154 15.4403 12.5154 15.3516 12.6172C15.364 12.9038 15.4332 13.1797 15.4978 13.4585C15.5087 13.5063 15.5197 13.5542 15.5309 13.6035C15.5607 13.7339 15.5907 13.8643 15.6208 13.9946C15.6523 14.1315 15.6836 14.2686 15.715 14.4056C15.7743 14.665 15.8339 14.9243 15.8936 15.1837C15.9678 15.5066 16.0418 15.8295 16.1158 16.1525C16.1914 16.4825 16.2671 16.8125 16.3429 17.1425C16.3545 17.1933 16.3662 17.2441 16.3779 17.2949C16.3993 17.3883 16.4208 17.4816 16.4423 17.575C16.4694 17.6932 16.4965 17.8114 16.5234 17.9297C16.5313 17.964 16.5392 17.9984 16.5473 18.0337C16.5543 18.065 16.5614 18.0962 16.5687 18.1284C16.5748 18.1552 16.5809 18.1819 16.5871 18.2095C16.6669 18.6059 16.5788 18.9384 16.3599 19.27C16.1248 19.4947 15.8661 19.6126 15.542 19.6216C15.5081 19.623 15.4741 19.6245 15.4392 19.626C15.0566 19.5758 14.7243 19.347 14.3994 19.1528C14.3497 19.1234 14.2999 19.0939 14.2502 19.0645C13.8606 18.8337 13.4735 18.5987 13.0868 18.363C12.7131 18.1352 12.3368 17.9121 11.9596 17.6901C11.7301 17.5548 11.5009 17.4189 11.2717 17.283C11.2176 17.2508 11.1634 17.2188 11.1093 17.1867C11.0576 17.1561 11.006 17.1255 10.9545 17.0949C10.9043 17.0652 10.8542 17.0355 10.804 17.006C10.682 16.9338 10.5618 16.8599 10.4436 16.7817C10.4209 16.7669 10.3982 16.7522 10.3748 16.7369C10.3132 16.6966 10.252 16.6555 10.1909 16.6144C10.051 16.55 9.98987 16.5571 9.84375 16.6016C9.734 16.6544 9.734 16.6544 9.62555 16.7245C9.58341 16.7506 9.54126 16.7766 9.49784 16.8034C9.46435 16.8244 9.46435 16.8244 9.43018 16.8458C9.3339 16.9062 9.2371 16.9658 9.14032 17.0254C9.089 17.0571 9.0377 17.0887 8.98642 17.1204C8.72742 17.2803 8.46575 17.4355 8.20367 17.5903C7.78262 17.8389 7.3632 18.09 6.9458 18.3447C6.51605 18.6069 6.08311 18.8632 5.64801 19.1165C5.3683 19.2794 5.3683 19.2794 5.09278 19.4493C4.82045 19.6186 4.53348 19.6524 4.21875 19.6094C3.90428 19.5059 3.6744 19.3555 3.51563 19.0625C3.50248 19.0384 3.48934 19.0144 3.4758 18.9896C3.31137 18.6277 3.39955 18.2069 3.48795 17.836C3.49748 17.7942 3.50701 17.7524 3.51683 17.7093C3.5482 17.5722 3.58028 17.4353 3.61237 17.2984C3.63462 17.2018 3.65683 17.1052 3.67899 17.0085C3.73147 16.7802 3.78438 16.5519 3.83753 16.3238C3.90292 16.0429 3.96769 15.7619 4.03244 15.4809C4.099 15.1921 4.1656 14.9032 4.23266 14.6145C4.28317 14.3971 4.33329 14.1795 4.38321 13.9619C4.40467 13.8689 4.42631 13.7758 4.44808 13.6828C4.48209 13.5375 4.51559 13.3921 4.54901 13.2467C4.55957 13.2021 4.57013 13.1575 4.58101 13.1116C4.59045 13.0701 4.59988 13.0287 4.6096 12.9859C4.61806 12.9495 4.62653 12.9131 4.63525 12.8756C4.64968 12.7638 4.64178 12.6858 4.60938 12.5781C4.5264 12.4818 4.5264 12.4818 4.41895 12.3926C4.39965 12.3756 4.38036 12.3587 4.36048 12.3413C4.19901 12.2007 4.03186 12.0671 3.86521 11.9328C3.70665 11.7995 3.55682 11.6576 3.40603 11.5156C3.23743 11.3577 3.06231 11.2111 2.88193 11.0667C2.75686 10.9628 2.63819 10.8533 2.51953 10.7422C2.36735 10.5996 2.21354 10.4626 2.05078 10.332C1.83967 10.1625 1.6426 9.98031 1.4447 9.79583C1.26311 9.62656 1.07554 9.46472 0.88608 9.30435C0.0283916 8.57717 0.0283916 8.57717 -0.0160201 8.17535C-0.0332238 7.85198 -0.00606277 7.57032 0.195314 7.30468C0.39901 7.08251 0.636495 6.9495 0.937893 6.91353C0.962374 6.91058 0.986856 6.90763 1.01208 6.90458C1.46424 6.85226 1.91817 6.81451 2.37149 6.7737C2.51237 6.76099 2.65324 6.74813 2.79411 6.73529C3.0603 6.71103 3.3265 6.68689 3.5927 6.6628C4.06981 6.61963 4.5469 6.57628 5.02399 6.53285C5.19106 6.51765 5.35813 6.5025 5.52521 6.48741C5.60407 6.48028 5.68294 6.47312 5.7618 6.46596C5.85758 6.45726 5.95335 6.4486 6.04914 6.43998C6.13203 6.43243 6.21491 6.42462 6.29775 6.41647C6.36596 6.41004 6.43428 6.40456 6.50267 6.40044C6.66151 6.39003 6.66151 6.39003 6.78413 6.29712C6.79657 6.26634 6.80901 6.23555 6.82183 6.20383C6.8368 6.16858 6.85177 6.13332 6.8672 6.09701C6.88226 6.05801 6.89732 6.01902 6.91284 5.97884C6.93828 5.9176 6.93828 5.9176 6.96422 5.85512C7.02028 5.71945 7.07456 5.58313 7.12891 5.44677C7.16788 5.35171 7.20698 5.25671 7.24622 5.16176C7.30758 5.01318 7.36881 4.86457 7.42946 4.7157C7.5722 4.3654 7.71851 4.01679 7.86789 3.66927C7.8782 3.6453 7.8885 3.62133 7.89912 3.59663C7.9504 3.47739 8.00176 3.35818 8.05315 3.23899C8.12928 3.06232 8.20511 2.88552 8.28087 2.7087C8.31697 2.62451 8.35314 2.54034 8.38937 2.45621C8.47626 2.25434 8.56249 2.05223 8.64684 1.84929C8.68828 1.7497 8.73005 1.65025 8.77184 1.55081C8.80109 1.48083 8.82988 1.41066 8.85866 1.34048C8.9852 1.03992 9.12404 0.716087 9.42139 0.549309C9.44692 0.534455 9.47245 0.5196 9.49875 0.504296C9.76414 0.372448 10.2256 0.366244 10.4932 0.495598ZM9.96094 2.07031C9.95177 2.09187 9.94259 2.11344 9.93314 2.13567C9.55795 3.01771 9.18276 3.89974 8.80509 4.78072C8.79462 4.80513 8.78416 4.82954 8.77338 4.85468C8.66243 5.11347 8.55141 5.37222 8.44032 5.63094C8.42172 5.6743 8.40312 5.71765 8.38396 5.76231C8.34784 5.84647 8.31169 5.93062 8.27551 6.01475C8.19379 6.20511 8.11287 6.39572 8.03411 6.58732C8.02004 6.62139 8.00597 6.65546 7.99147 6.69057C7.96577 6.75301 7.9403 6.81554 7.91511 6.87819C7.7749 7.21844 7.59305 7.43347 7.25464 7.58078C7.05644 7.64871 6.85238 7.66167 6.64467 7.67966C6.59672 7.68429 6.54877 7.68892 6.49937 7.69369C6.35119 7.70785 6.20296 7.72117 6.05469 7.73437C5.96731 7.7425 5.87994 7.75066 5.79257 7.75886C5.57779 7.77881 5.36294 7.79791 5.14806 7.81671C5.00877 7.82892 4.8695 7.8413 4.73023 7.85372C4.33529 7.88895 3.94034 7.92402 3.54534 7.95864C3.30142 7.98004 3.05752 8.00174 2.81364 8.02364C2.72133 8.03187 2.629 8.03998 2.53667 8.04797C2.40863 8.05907 2.28063 8.07055 2.15264 8.08213C2.11474 8.08531 2.07684 8.0885 2.03779 8.09179C1.98561 8.09662 1.98561 8.09662 1.93237 8.10156C1.90225 8.10421 1.87213 8.10687 1.84109 8.10961C1.75012 8.12642 1.68198 8.15814 1.60156 8.20312C1.95452 8.53487 1.95452 8.53487 2.32422 8.84765C2.5102 8.99687 2.68409 9.15583 2.85797 9.31869C2.98872 9.44045 3.12227 9.55608 3.26172 9.66796C3.44773 9.8172 3.62166 9.97619 3.79556 10.1391C3.92545 10.2601 4.0581 10.3748 4.19678 10.4858C4.36768 10.6229 4.52813 10.7679 4.6875 10.918C4.9441 11.1595 5.21376 11.3813 5.48844 11.602C5.7321 11.8063 5.90977 12.027 5.97656 12.3437C6.00286 12.667 5.94701 12.9628 5.8732 13.2762C5.86221 13.3246 5.85122 13.3729 5.8399 13.4227C5.81005 13.554 5.77962 13.6852 5.7491 13.8164C5.71712 13.9543 5.6857 14.0923 5.65422 14.2304C5.59459 14.4915 5.53451 14.7526 5.47424 15.0136C5.36632 15.4811 5.25918 15.9487 5.15219 16.4163C5.11469 16.5802 5.07699 16.744 5.03913 16.9078C5.02126 16.9851 5.00345 17.0626 4.98567 17.14C4.96407 17.234 4.94235 17.328 4.9205 17.422C4.86987 17.6432 4.82759 17.8601 4.80469 18.0859C5.15528 17.8994 5.49648 17.6986 5.8374 17.4951C5.89363 17.4616 5.94986 17.4282 6.00609 17.3947C6.32578 17.2044 6.64504 17.0133 6.96385 16.8215C7.16108 16.703 7.35872 16.5852 7.55661 16.4677C7.58262 16.4523 7.60862 16.4369 7.63541 16.421C7.77036 16.3409 7.90535 16.2609 8.04041 16.181C8.29447 16.0306 8.54784 15.8793 8.79929 15.7246C8.86499 15.6844 8.86499 15.6844 8.93201 15.6434C9.01295 15.5938 9.09368 15.5438 9.17415 15.4934C9.54233 15.2683 9.88156 15.1323 10.3125 15.2344C10.6829 15.394 11.0276 15.6031 11.3696 15.8154C11.4656 15.8745 11.5617 15.9333 11.6579 15.9921C11.6944 16.0145 11.6944 16.0145 11.7318 16.0374C11.9922 16.1965 12.2558 16.3503 12.5195 16.5039C12.9641 16.7631 13.405 17.0279 13.8443 17.2958C14.2802 17.5616 14.7182 17.8238 15.1563 18.0859C15.2013 17.9517 15.1888 17.8608 15.1573 17.7239C15.1478 17.6822 15.1384 17.6405 15.1287 17.5976C15.118 17.5521 15.1074 17.5065 15.0964 17.4596C15.0854 17.4115 15.0744 17.3635 15.0631 17.3139C15.033 17.182 15.0024 17.0503 14.9718 16.9185C14.9398 16.7806 14.9082 16.6425 14.8766 16.5045C14.8166 16.2429 14.7563 15.9814 14.6958 15.72C14.6204 15.394 14.5455 15.0678 14.4705 14.7417C14.4443 14.6276 14.418 14.5134 14.3918 14.3992C14.3854 14.3716 14.3791 14.3439 14.3725 14.3154C14.3287 14.1247 14.2847 13.9339 14.2406 13.7432C14.2288 13.6921 14.217 13.6409 14.2052 13.5898C14.1834 13.4952 14.1616 13.4007 14.1397 13.3061C14.1252 13.2435 14.1252 13.2435 14.1105 13.1795C14.1021 13.1433 14.0937 13.1071 14.0851 13.0698C13.9956 12.6697 13.9752 12.323 14.1797 11.9531C14.2821 11.8114 14.3913 11.7064 14.5288 11.5991C14.6991 11.4629 14.8606 11.3211 15.0195 11.1719C15.1709 11.0301 15.3238 10.8938 15.4858 10.7642C15.6567 10.6271 15.8172 10.4821 15.9766 10.332C16.1685 10.1513 16.3653 9.98153 16.5712 9.81674C16.6963 9.71278 16.8149 9.60333 16.9336 9.49218C17.0858 9.34965 17.2396 9.21261 17.4023 9.08202C17.5914 8.93032 17.769 8.76908 17.946 8.60369C18.0597 8.49748 18.1743 8.39359 18.2935 8.29345C18.3281 8.26364 18.3627 8.23383 18.3984 8.20312C18.3984 8.19023 18.3984 8.17734 18.3984 8.16406C17.8948 8.08764 17.3884 8.04546 16.8811 8.00168C16.725 7.98818 16.569 7.97448 16.413 7.9607C15.9697 7.9216 15.5265 7.88271 15.0832 7.84437C14.8373 7.82311 14.5914 7.80155 14.3456 7.77969C14.2161 7.76819 14.0865 7.75687 13.957 7.74582C13.8126 7.73349 13.6682 7.72068 13.5238 7.70775C13.4817 7.70428 13.4396 7.7008 13.3963 7.69722C13.0286 7.66341 12.5857 7.6225 12.3328 7.32371C12.126 7.03374 12.0018 6.70583 11.8671 6.37847C11.7868 6.18325 11.7052 5.98855 11.6238 5.79376C11.6066 5.75227 11.5893 5.71078 11.5715 5.66804C11.3574 5.15484 11.1376 4.64414 10.918 4.13329C10.8419 3.95615 10.7658 3.779 10.6897 3.60183C10.6716 3.55967 10.6535 3.5175 10.6348 3.47406C10.4345 3.00688 10.2366 2.53867 10.0391 2.07031C10.0133 2.07031 9.9875 2.07031 9.96094 2.07031Z" fill="white" fill-opacity="0.7"/>
</g>
<defs>
<clipPath id="clip0_394_8">
<rect width="20" height="20" fill="white"/>
</clipPath>
</defs>
</svg>
